<svg width="18" height="18" viewBox="0 0 18 18" fill="none" xmlns="http://www.w3.org/2000/svg">
<g clip-path="url(#clip0_67_368)">
<path d="M13.4821 4.065L13.4821 3.63596L13.9105 3.63657L13.9111 4.065L13.4821 4.065ZM4.69534 13.4577C4.61498 13.5381 4.50599 13.5832 4.39235 13.5832C4.2787 13.5832 4.16972 13.5381 4.08936 13.4577C4.009 13.3773 3.96385 13.2684 3.96385 13.1547C3.96385 13.0411 4.009 12.9321 4.08936 12.8517L4.69534 13.4577ZM6.21029 3.63596L13.4821 3.63596L13.4821 4.49403L6.21029 4.49403L6.21029 3.63596ZM13.9111 4.065L13.9111 11.3368H13.053L13.053 4.065L13.9111 4.065ZM13.7851 4.36799L4.69534 13.4577L4.08936 12.8517L13.1791 3.762L13.7851 4.36799Z" fill="#111111"/>
<path d="M13.4821 3.63596L13.4821 4.065L13.9111 4.065M13.4821 3.63596L13.9105 3.63657L13.9111 4.065M13.4821 3.63596L6.21029 3.63596L6.21029 4.49403L13.4821 4.49403L13.4821 3.63596ZM13.9111 4.065L13.9111 11.3368L13.053 11.3368L13.053 4.065L13.9111 4.065ZM4.69534 13.4577C4.61498 13.5381 4.50599 13.5832 4.39235 13.5832C4.2787 13.5832 4.16972 13.5381 4.08936 13.4577C4.009 13.3773 3.96385 13.2684 3.96385 13.1547C3.96385 13.0411 4.009 12.9321 4.08936 12.8517M4.69534 13.4577L4.08936 12.8517M4.69534 13.4577L13.7851 4.36799L13.1791 3.762L4.08936 12.8517" stroke="#111111"/>
</g>
<defs>
<clipPath id="clip0_67_368">
<rect width="18" height="18" fill="white"/>
</clipPath>
</defs>
</svg>
