<svg width="369" height="89" viewBox="0 0 369 89" fill="none" xmlns="http://www.w3.org/2000/svg">
<g clip-path="url(#clip0_67_430)">
<path d="M117.412 64.8086L104.702 50.1786H102.672V64.8086H93.0916V25.9186H102.672V41.3586H104.062L117.292 25.9186H128.782L112.242 45.4186L129.942 64.8086H117.402H117.412Z" fill="#263887"/>
<path d="M157.232 64.8086L145.502 51.4586H142.712V64.8086H133.132V25.9186H152.812C161.232 25.9186 166.802 31.0286 166.802 38.6286C166.802 45.0186 162.852 49.5986 156.582 50.9886L168.772 64.7986H157.222L157.232 64.8086ZM151.782 43.4486C155.202 43.4486 157.412 41.5886 157.412 38.7486C157.412 35.9086 155.202 34.1086 151.782 34.1086H142.722V43.4586H151.782V43.4486Z" fill="#263887"/>
<path d="M192.242 64.8086H182.492V52.7386L167.462 25.9186H177.912L187.492 42.9786L196.952 25.9186H207.632L192.252 52.6186V64.8086H192.242Z" fill="#263887"/>
<path d="M230.552 25.9186C239.312 25.9186 244.832 31.3186 244.832 39.3286C244.832 47.3386 239.142 52.9086 230.152 52.9086H220.982V64.8086H211.402V25.9186H230.562H230.552ZM229.442 44.8986C233.152 44.8986 235.422 42.7486 235.422 39.4386C235.422 36.3086 233.162 34.0986 229.442 34.0986H220.972V44.8986H229.442Z" fill="#263887"/>
<path d="M269.842 34.2786V64.8086H260.322V34.2786H247.722V25.9186H282.432V34.2786H269.832H269.842Z" fill="#263887"/>
<path d="M325.512 45.4286C325.512 56.7486 316.402 65.6886 304.792 65.6886C293.182 65.6886 284.072 56.7486 284.072 45.4286C284.072 34.1086 293.182 25.0586 304.792 25.0586C316.402 25.0586 325.512 34.0586 325.512 45.4286ZM315.932 45.4286C315.932 38.7486 311.112 33.8186 304.792 33.8186C298.472 33.8186 293.652 38.7486 293.652 45.4286C293.652 52.1086 298.472 56.9186 304.792 56.9186C311.112 56.9186 315.932 52.0486 315.932 45.4286Z" fill="#263887"/>
<path d="M368.062 64.8086H360.172L340.492 42.2886V64.8086H330.912V25.9186H338.862L358.542 49.1386V25.9186H368.062V64.8086Z" fill="#263887"/>
<path d="M0.731567 22.7486V66.2486L38.4016 87.9986L76.0716 66.2486V22.7486L38.4016 0.998627L0.731567 22.7486Z" stroke="#294894" stroke-width="0.5" stroke-miterlimit="10"/>
<path d="M76.0716 22.7486L76.1916 22.5286L66.7716 17.0886L57.3516 11.6486L47.9316 6.20863L38.5316 0.778625L38.4116 0.998625L38.2916 0.778625L28.8716 6.21863L19.4516 11.6586L0.601558 22.5286L0.721558 22.7486H0.471558V66.2486H0.721558L0.601558 66.4686L10.0216 71.9086L19.4416 77.3486L28.8616 82.7886L38.2816 88.2286L38.4016 88.0086L38.5216 88.2286L47.9416 82.7886L57.3616 77.3486L66.7816 71.9086L76.2016 66.4686L76.0816 66.2486H76.3316V22.7486H76.0816H76.0716ZM0.981558 34.0586L9.64156 39.0686L0.981558 44.0586V34.0486V34.0586ZM0.981558 55.8086L9.65156 60.8086L0.981558 65.8186V55.8086ZM9.90156 71.2486L1.23156 66.2486L9.90156 61.2486V71.2586V71.2486ZM9.90156 60.3886L0.981558 55.2286V44.9286L9.90156 50.0786V60.3886ZM9.90156 49.4986L1.23156 44.4986L9.90156 39.4986V49.5086V49.4986ZM9.90156 38.6286L0.981558 33.4786V23.1786L9.90156 28.3286V38.6386V38.6286ZM1.23156 22.7486L10.1416 17.6086L19.0616 22.7486L10.1416 27.8986L1.23156 22.7486ZM10.4016 28.6186L19.0716 33.6186L10.4016 38.6186V28.6086V28.6186ZM10.4016 50.3686L19.0716 55.3686L10.4016 60.3686V50.3586V50.3686ZM19.3216 76.6886L10.4016 71.5386V61.2386L19.3216 66.3886V76.6886ZM19.3216 65.8086L10.6516 60.8086L19.3216 55.8086V65.8186V65.8086ZM19.3216 54.9386L10.4016 49.7886V39.4986L19.3216 44.6486V54.9486V54.9386ZM19.3216 44.0586L10.6516 39.0586L19.3216 34.0486V44.0586ZM19.3216 33.1886L10.6516 28.1886L19.3216 23.1886V33.1986V33.1886ZM19.3216 22.3086L10.6516 17.3086L19.3216 12.2986V22.3086ZM38.6516 66.6786L47.3216 71.6786L38.6516 76.6786V66.6686V66.6786ZM37.9016 66.2486L29.2316 71.2486V61.2386L37.9016 66.2386V66.2486ZM37.9016 22.7486L28.9816 27.8986L20.0616 22.7586L28.9916 17.6086L37.9116 22.7586L37.9016 22.7486ZM29.4816 17.3086L38.1516 12.3086V22.3186L29.4816 17.3186V17.3086ZM47.8216 27.8886L38.9016 22.7386L47.8216 17.5886L56.7416 22.7386L47.8216 27.8886ZM56.9916 23.1786V33.1886L48.3216 28.1886L56.9916 23.1886V23.1786ZM56.9916 22.3086L48.3216 17.3086L56.9916 12.3086V22.3186V22.3086ZM56.7416 11.8686L47.8216 17.0186L38.9016 11.8686L47.8216 6.71863L56.7416 11.8686ZM38.6516 1.42863L47.3216 6.42863L38.6516 11.4286V1.42863ZM38.6516 12.2986L47.3216 17.2986L38.6516 22.2986V12.2886V12.2986ZM38.1516 1.42863V11.4386L29.4816 6.43863L38.1516 1.42863ZM28.9816 6.71863L37.9016 11.8686L28.9816 17.0186L20.0616 11.8686L28.9816 6.71863ZM19.8216 12.2986L28.4916 17.2986L19.8216 22.2986V12.2886V12.2986ZM19.8216 23.1886L28.4916 28.1886L19.8216 33.1886V23.1886ZM19.8216 66.6786L28.4916 71.6886L19.8216 76.6886V66.6786ZM28.7316 82.1286L20.0616 77.1286L28.7316 72.1286V82.1386V82.1286ZM28.7316 71.2486L19.8116 66.0986V55.7986L28.7316 60.9486V71.2486ZM38.1516 87.5586L29.2316 82.4086V72.1086L38.1516 77.2586V87.5486V87.5586ZM38.1516 76.6886L29.4816 71.6886L38.1516 66.6886V76.6986V76.6886ZM47.5716 82.4086L38.6516 87.5586V77.2586L43.8616 74.2486L47.5616 72.1086V82.3986L47.5716 82.4086ZM47.5716 71.2486L38.9016 66.2486L47.5716 61.2486V71.2586V71.2486ZM48.0716 82.1286V72.1186L56.7416 77.1186L48.0716 82.1186V82.1286ZM56.9916 76.6886L48.3216 71.6886L56.9916 66.6886V76.6886ZM56.9916 66.0986L48.0716 71.2486V60.9486L56.9916 55.7986V66.0986ZM57.4916 12.2986L66.1616 17.2986L57.4916 22.2986V12.2886V12.2986ZM57.4916 23.1786L66.1616 28.1786L57.4916 33.1786V23.1686V23.1786ZM57.4916 34.0486L66.1616 39.0486L57.4916 44.0486V34.0386V34.0486ZM57.4916 55.7986L66.1616 60.7986L57.4916 65.7986V55.7886V55.7986ZM66.4116 71.5386L57.4916 76.6886V66.3886L66.4116 61.2386V71.5286V71.5386ZM66.4116 60.3786L57.7416 55.3786L66.4116 50.3786V60.3886V60.3786ZM66.4116 49.7886L57.4916 54.9386V44.6386L66.4116 39.4886V49.7886ZM66.4116 38.6286L57.7416 33.6286L66.4116 28.6286V38.6386V38.6286ZM66.6616 27.8886L57.7416 22.7386L66.6616 17.5886L75.5816 22.7386L66.6616 27.8886ZM66.9116 39.4886L75.5816 44.4886L66.9116 49.4886V39.4786V39.4886ZM66.9116 71.2486V61.2386L75.5816 66.2386L66.9116 71.2386V71.2486ZM75.8216 65.8086L67.1516 60.8086L75.8216 55.8086V65.8186V65.8086ZM75.8216 55.2286L66.9016 60.3786V50.0786L75.8216 44.9286V55.2286ZM75.8216 44.0586L67.1516 39.0586L75.8216 34.0586V44.0686V44.0586ZM75.8216 33.4786L66.9016 38.6286V28.3286L75.8216 23.1786V33.4786Z" fill="#294894"/>
<path d="M57.1216 44.2786L48.0816 49.4986V39.1986L57.3716 33.8286L57.1216 33.3986L47.8316 38.7686L38.9116 33.6186L47.9516 28.3986L47.7016 27.9686L38.6616 33.1886V22.7486H38.1616V33.1986L29.1216 27.9786L28.8716 28.4086L37.9116 33.6286L28.9916 38.7786L19.7016 33.4086L19.4516 33.8386L28.7416 39.2086V49.5086L19.7016 44.2886L19.4516 44.7186L28.4916 49.9386L19.4516 55.1586L19.7016 55.5886L28.7416 50.3686V60.8086H29.2416V50.3686L38.1616 55.5186V66.2486H38.6616V55.5186L47.5816 50.3686V60.8086H48.0816V50.3686L57.1216 55.5886L57.3716 55.1586L48.3316 49.9386L57.3716 44.7186L57.1216 44.2886V44.2786ZM38.6516 44.0586V34.0486L47.3216 39.0486L38.6516 44.0486V44.0586ZM47.5716 39.4886V49.4986L38.9016 44.4986L47.5716 39.4986V39.4886ZM38.1516 44.0586L29.4816 39.0586L38.1516 34.0586V44.0686V44.0586ZM37.9016 44.4986L29.2316 49.4986V39.4886L37.9016 44.4886V44.4986ZM38.1516 44.9286V54.9386L29.4816 49.9286L38.1516 44.9186V44.9286ZM38.6516 44.9286L47.3216 49.9286L38.6516 54.9286V44.9186V44.9286Z" fill="#395D9B"/>
</g>
<defs>
<clipPath id="clip0_67_430">
<rect width="367.58" height="87.58" fill="white" transform="translate(0.481567 0.708618)"/>
</clipPath>
</defs>
</svg>
