<svg width="219" height="52" viewBox="0 0 219 52" fill="none" xmlns="http://www.w3.org/2000/svg">
<g clip-path="url(#clip0_67_474)">
<path d="M69.4263 38.0589L61.8799 29.3725H60.6746V38.0589H54.9865V14.9683H60.6746V24.1357H61.4999L69.3551 14.9683H76.1772L66.3567 26.5462L76.8659 38.0589H69.4204H69.4263Z" fill="white"/>
<path d="M93.0692 38.0589L86.1046 30.1325H84.448V38.0589H78.7599V14.9683H90.4448C95.4441 14.9683 98.7513 18.0023 98.7513 22.5147C98.7513 26.3087 96.406 29.0281 92.6832 29.8534L99.9209 38.053H93.0632L93.0692 38.0589ZM89.8333 25.3766C91.8639 25.3766 93.176 24.2722 93.176 22.586C93.176 20.8998 91.8639 19.831 89.8333 19.831H84.4539V25.3825H89.8333V25.3766Z" fill="white"/>
<path d="M113.856 38.0589H108.067V30.8924L99.1432 14.9683H105.348L111.036 25.0975L116.653 14.9683H122.994L113.862 30.8212V38.0589H113.856Z" fill="white"/>
<path d="M136.602 14.9683C141.804 14.9683 145.081 18.1745 145.081 22.9304C145.081 27.6862 141.703 30.9934 136.365 30.9934H130.92V38.0589H125.232V14.9683H136.608H136.602ZM135.943 26.2375C138.146 26.2375 139.494 24.961 139.494 22.9957C139.494 21.1373 138.152 19.8251 135.943 19.8251H130.914V26.2375H135.943Z" fill="white"/>
<path d="M159.931 19.932V38.0589H154.278V19.932H146.797V14.9683H167.406V19.932H159.925H159.931Z" fill="white"/>
<path d="M192.984 26.5522C192.984 33.2734 187.575 38.5814 180.682 38.5814C173.789 38.5814 168.38 33.2734 168.38 26.5522C168.38 19.831 173.789 14.4576 180.682 14.4576C187.575 14.4576 192.984 19.8013 192.984 26.5522ZM187.296 26.5522C187.296 22.586 184.434 19.6588 180.682 19.6588C176.929 19.6588 174.068 22.586 174.068 26.5522C174.068 30.5184 176.929 33.3743 180.682 33.3743C184.434 33.3743 187.296 30.4828 187.296 26.5522Z" fill="white"/>
<path d="M218.248 38.0589H213.563L201.878 24.6878V38.0589H196.19V14.9683H200.911L212.596 28.755V14.9683H218.248V38.0589Z" fill="white"/>
<path d="M0.148438 13.086V38.9138L22.5147 51.8277L44.881 38.9138V13.086L22.5147 0.172119L0.148438 13.086Z" stroke="white" stroke-width="0.5" stroke-miterlimit="10"/>
<path d="M44.881 13.086L44.9523 12.9554L39.3592 9.72545L33.7662 6.49549L28.1731 3.26553L22.5919 0.0415039L22.5207 0.172127L22.4494 0.0415039L16.8564 3.27147L11.2633 6.50143L0.0712662 12.9554L0.142515 13.086H-0.00592041V38.9138H0.142515L0.0712662 39.0445L5.66432 42.2744L11.2574 45.5044L16.8504 48.7344L22.4435 51.9643L22.5147 51.8337L22.586 51.9643L28.1791 48.7344L33.7721 45.5044L39.3652 42.2744L44.9582 39.0445L44.887 38.9138H45.0354V13.086H44.887H44.881ZM0.296888 19.8013L5.4387 22.7759L0.296888 25.7387V19.7953V19.8013ZM0.296888 32.7152L5.44464 35.6839L0.296888 38.6585V32.7152ZM5.59307 41.8826L0.445324 38.9138L5.59307 35.9451V41.8885V41.8826ZM5.59307 35.4345L0.296888 32.3708V26.2553L5.59307 29.313V35.4345ZM5.59307 28.9687L0.445324 25.9999L5.59307 23.0312V28.9746V28.9687ZM5.59307 22.5147L0.296888 19.4569V13.3413L5.59307 16.3991V22.5206V22.5147ZM0.445324 13.086L5.73557 10.0342L11.0318 13.086L5.73557 16.1438L0.445324 13.086ZM5.88995 16.5713L11.0377 19.54L5.88995 22.5087V16.5654V16.5713ZM5.88995 29.4852L11.0377 32.4539L5.88995 35.4226V29.4793V29.4852ZM11.1861 45.1125L5.88995 42.0547V35.9392L11.1861 38.997V45.1125ZM11.1861 38.6526L6.03838 35.6839L11.1861 32.7152V38.6585V38.6526ZM11.1861 32.1986L5.88995 29.1408V23.0312L11.1861 26.089V32.2046V32.1986ZM11.1861 25.7387L6.03838 22.77L11.1861 19.7953V25.7387ZM11.1861 19.2847L6.03838 16.316L11.1861 13.3473V19.2906V19.2847ZM11.1861 12.8248L6.03838 9.85607L11.1861 6.88142V12.8248ZM22.6632 39.1692L27.8109 42.1379L22.6632 45.1066V39.1632V39.1692ZM22.2179 38.9138L17.0701 41.8826V35.9392L22.2179 38.9079V38.9138ZM22.2179 13.086L16.9217 16.1438L11.6255 13.092L16.9276 10.0342L22.2238 13.092L22.2179 13.086ZM17.2186 9.85607L22.3663 6.88736V12.8307L17.2186 9.86201V9.85607ZM28.1078 16.1379L22.8116 13.0801L28.1078 10.0223L33.404 13.0801L28.1078 16.1379ZM33.5524 13.3413V19.2847L28.4047 16.316L33.5524 13.3473V13.3413ZM33.5524 12.8248L28.4047 9.85607L33.5524 6.88736V12.8307V12.8248ZM33.404 6.62611L28.1078 9.68389L22.8116 6.62611L28.1078 3.56834L33.404 6.62611ZM22.6632 0.427437L27.8109 3.39615L22.6632 6.36487V0.427437ZM22.6632 6.88142L27.8109 9.85014L22.6632 12.8189V6.87548V6.88142ZM22.3663 0.427437V6.3708L17.2186 3.40209L22.3663 0.427437ZM16.9217 3.56834L22.2179 6.62611L16.9217 9.68389L11.6255 6.62611L16.9217 3.56834ZM11.483 6.88142L16.6308 9.85014L11.483 12.8189V6.87548V6.88142ZM11.483 13.3473L16.6308 16.316L11.483 19.2847V13.3473ZM11.483 39.1692L16.6308 42.1438L11.483 45.1125V39.1692ZM16.7733 48.3425L11.6255 45.3738L16.7733 42.4051V48.3484V48.3425ZM16.7733 41.8826L11.4771 38.8248V32.7092L16.7733 35.767V41.8826ZM22.3663 51.5665L17.0701 48.5087V42.3932L22.3663 45.451V51.5606V51.5665ZM22.3663 45.1125L17.2186 42.1438L22.3663 39.1751V45.1185V45.1125ZM27.9594 48.5087L22.6632 51.5665V45.451L25.7566 43.6638L27.9534 42.3932V48.5028L27.9594 48.5087ZM27.9594 41.8826L22.8116 38.9138L27.9594 35.9451V41.8885V41.8826ZM28.2562 48.3425V42.3991L33.404 45.3678L28.2562 48.3365V48.3425ZM33.5524 45.1125L28.4047 42.1438L33.5524 39.1751V45.1125ZM33.5524 38.8248L28.2562 41.8826V35.767L33.5524 32.7092V38.8248ZM33.8493 6.88142L38.997 9.85014L33.8493 12.8189V6.87548V6.88142ZM33.8493 13.3413L38.997 16.3101L33.8493 19.2788V13.3354V13.3413ZM33.8493 19.7953L38.997 22.764L33.8493 25.7328V19.7894V19.7953ZM33.8493 32.7092L38.997 35.6779L33.8493 38.6467V32.7033V32.7092ZM39.1455 42.0547L33.8493 45.1125V38.997L39.1455 35.9392V42.0488V42.0547ZM39.1455 35.4286L33.9977 32.4599L39.1455 29.4911V35.4345V35.4286ZM39.1455 29.1408L33.8493 32.1986V26.0831L39.1455 23.0253V29.1408ZM39.1455 22.5147L33.9977 19.546L39.1455 16.5772V22.5206V22.5147ZM39.2939 16.1379L33.9977 13.0801L39.2939 10.0223L44.5901 13.0801L39.2939 16.1379ZM39.4424 23.0253L44.5901 25.994L39.4424 28.9627V23.0194V23.0253ZM39.4424 41.8826V35.9392L44.5901 38.9079L39.4424 41.8766V41.8826ZM44.7326 38.6526L39.5849 35.6839L44.7326 32.7152V38.6585V38.6526ZM44.7326 32.3708L39.4364 35.4286V29.313L44.7326 26.2553V32.3708ZM44.7326 25.7387L39.5849 22.77L44.7326 19.8013V25.7446V25.7387ZM44.7326 19.4569L39.4364 22.5147V16.3991L44.7326 13.3413V19.4569Z" fill="white"/>
<path d="M33.6296 25.8693L28.2622 28.9687V22.8531L33.778 19.6647L33.6296 19.4094L28.1137 22.5978L22.8175 19.54L28.185 16.4407L28.0365 16.1854L22.6691 19.2847V13.0861H22.3722V19.2907L17.0048 16.1913L16.8564 16.4466L22.2238 19.546L16.9276 22.6038L11.4117 19.4154L11.2633 19.6707L16.7792 22.8591V28.9746L11.4117 25.8753L11.2633 26.1306L16.6307 29.2299L11.2633 32.3293L11.4117 32.5846L16.7792 29.4852V35.6839H17.076V29.4852L22.3722 32.543V38.9139H22.6691V32.543L27.9653 29.4852V35.6839H28.2622V29.4852L33.6296 32.5846L33.778 32.3293L28.4106 29.2299L33.778 26.1306L33.6296 25.8753V25.8693ZM22.6632 25.7387V19.7954L27.8109 22.7641L22.6632 25.7328V25.7387ZM27.9594 23.0253V28.9687L22.8116 26L27.9594 23.0313V23.0253ZM22.3663 25.7387L17.2185 22.77L22.3663 19.8013V25.7447V25.7387ZM22.2179 26L17.0701 28.9687V23.0253L22.2179 25.994V26ZM22.3663 26.2553V32.1986L17.2185 29.224L22.3663 26.2493V26.2553ZM22.6632 26.2553L27.8109 29.224L22.6632 32.1927V26.2493V26.2553Z" fill="white"/>
</g>
<defs>
<clipPath id="clip0_67_474">
<rect width="218.248" height="52" fill="white"/>
</clipPath>
</defs>
</svg>
