<svg width="72" height="19" viewBox="0 0 72 19" fill="none" xmlns="http://www.w3.org/2000/svg">
<g clip-path="url(#clip0_26_37)">
<path d="M57.166 11.3427V11.791C57.166 11.791 57.6894 11.9279 57.6894 12.5007V17.5682C57.6894 18.1533 57.166 18.2779 57.166 18.2779V18.7261H57.6894H68.4639V11.3427H57.6894H57.166ZM59.4256 12.3637H66.6894V17.7051H59.4256V12.3637Z" fill="#030303"/>
<path d="M16.5064 0.124512H14.7447H13.9532V0.697251C13.9532 0.697251 14.7447 0.871563 14.7447 1.60616V13.5092V13.559C14.7702 13.9699 14.6936 15.1527 14.1319 15.7254C13.9021 15.962 13.5958 16.0865 13.1873 16.0865V17.8047C14.0809 17.8047 14.8596 17.4935 15.4213 16.9083C16.5702 15.7254 16.5319 13.808 16.5064 13.4843V0.124512Z" fill="#030303"/>
<path d="M51.8043 0.124512H50.0426H49.2511V0.697251C49.2511 0.697251 50.017 0.859112 50.0426 1.59371V13.5216V13.5714C50.0681 13.9823 49.9915 15.1651 49.4298 15.7379C49.2 15.9744 48.8936 16.099 48.4851 16.099V17.8172C49.3787 17.8172 50.1574 17.5059 50.7192 16.9207C51.8681 15.7379 51.8298 13.8204 51.8043 13.4967V0.124512Z" fill="#030303"/>
<path d="M13.3532 11.2307V10.2097V9.69922H12.8937C12.8937 9.69922 12.7532 10.2097 12.166 10.2097H1.53196C0.931961 10.2097 0.804301 9.69922 0.804301 9.69922H0.344727V10.2097V11.2307H3.06388H6.03834V12.426V12.4758C6.06388 12.8866 5.98728 14.0695 5.42558 14.6422C5.19579 14.8788 4.88941 15.0033 4.4809 15.0033V16.7215C5.37451 16.7215 6.15324 16.4102 6.71494 15.825C7.86388 14.6422 7.82558 12.7248 7.80005 12.4011V11.2307H13.3532Z" fill="#030303"/>
<path d="M71.1958 4.03408C71.1958 4.03408 71.0682 4.50721 70.532 4.54456H68.4511V1.43185V0.0871582H66.6894H65.8979V0.759504C65.8979 0.759504 66.6894 0.958718 66.6894 1.84273V10.1225H68.4511V6.71101V5.55308H71.6554V4.53211V4.02163H71.1958V4.03408Z" fill="#030303"/>
<path d="M34.6212 8.46659H19.7234C19.1234 8.46659 18.9957 7.9561 18.9957 7.9561H18.5361V8.46659V9.48755H24.651H26.2851H26.3617C26.4638 9.83618 26.4255 10.0976 25.9276 10.7949L26.5404 11.2182C26.451 11.2182 26.3617 11.2307 26.2851 11.2431C23.5021 11.517 21.3574 13.1232 21.3574 15.0531C21.3574 17.1822 23.9489 18.9128 27.1404 18.9128C30.3319 18.9128 32.9234 17.1822 32.9234 15.0531C32.9234 13.4345 31.417 12.0524 29.2978 11.4797C29.2851 11.4797 29.2595 11.4672 29.2468 11.4672C28.8255 11.3552 28.4297 11.2929 28.0468 11.2431C27.9319 11.2307 27.817 11.2182 27.7021 11.2182C28.0851 10.5583 28.1872 10.0229 28.1234 9.48755H29.7063H35.8085V8.46659V7.96855H35.3489C35.3489 7.96855 35.2212 8.46659 34.6212 8.46659ZM30.9191 15.0531C30.9191 16.7589 29.234 18.1409 27.1404 18.1409C25.0595 18.1409 23.3617 16.7589 23.3617 15.0531C23.3617 13.3473 25.0468 11.9653 27.1404 11.9653C29.234 11.9653 30.9191 13.3473 30.9191 15.0531Z" fill="#030303"/>
<path d="M64.4427 7.85648C64.4427 7.85648 64.3023 8.36697 63.715 8.36697H56.8725V7.81913V6.28768V1.97968H63.5618V0.946261V0.448227H63.1023C63.1023 0.448227 62.9618 0.958712 62.3746 0.958712H55.0725H54.5491V1.40694C54.5491 1.40694 55.0725 1.5439 55.0725 2.11664V8.21756C55.0725 8.80275 54.5491 8.92726 54.5491 8.92726V9.37549H54.7789H55.0725H55.915H64.915V8.8401V8.35452V7.84403H64.4427V7.85648Z" fill="#030303"/>
<path d="M9.57441 0.560292V0.136963H9.17867C9.17867 0.136963 9.06377 0.572743 8.55314 0.572743H5.31058C4.79994 0.572743 4.68505 0.136963 4.68505 0.136963H4.28931V0.572743V2.01704H9.57441V0.560292Z" fill="#030303"/>
<path d="M7.97878 4.2582H11.6809H12.0384V3.29949V3.19988V2.789H11.5788C11.5788 2.789 11.4384 3.29949 10.8511 3.29949H3.12771C2.52771 3.29949 2.40006 2.789 2.40006 2.789H2.04261H1.94048V3.29949V3.31194V4.2582H6.02559H6.12771C6.08942 4.53212 5.59154 7.18415 1.71069 7.91875L2.09367 8.90237C4.95325 8.30473 6.21708 6.78572 6.76601 5.6527C7.37878 6.79818 8.70644 8.27983 11.6426 8.88992L12.2554 7.37091C8.93623 6.77327 8.14474 4.90565 7.97878 4.2582Z" fill="#030303"/>
<path d="M28.2638 1.65597H33.1659V0.634997V0.124512H32.7064C32.7064 0.124512 32.5659 0.634997 31.9787 0.634997H22.3276C21.7276 0.634997 21.6 0.124512 21.6 0.124512H21.2042H21.1404V0.634997V0.6848V1.64352H23.5149H26.2085H26.4255C26.3744 2.00459 25.7744 5.22936 20.8723 6.18808L21.2553 7.17169C24.9064 6.41219 26.4383 4.46986 27.051 3.12517C27.7276 4.50721 29.3234 6.44954 33.051 7.1966L33.651 5.66514C29.3744 4.89319 28.4425 2.41547 28.2638 1.65597Z" fill="#030303"/>
<path d="M46.7873 0.709702C46.7873 0.709702 46.6469 1.22019 46.0596 1.22019H44.7447H37.8383H37.3149V1.66842C37.3149 1.66842 37.8383 1.80538 37.8383 2.37812V10.3591V10.4836V11.7661C37.8383 12.3512 37.3149 12.4758 37.3149 12.4758V12.924H37.8383H44.7447H47.2469V10.4712V10.0354V1.20774V0.709702H46.7873ZM45.4213 10.4712V11.8906H44.7447H39.6383V10.4712V10.1225V2.22871H44.7447H45.4213V9.35059V10.4712Z" fill="#030303"/>
</g>
<defs>
<clipPath id="clip0_26_37">
<rect width="72" height="19" fill="white"/>
</clipPath>
</defs>
</svg>
