<?xml version="1.0" encoding="utf-8"?>
<!-- Generator: Adobe Illustrator 27.8.1, SVG Export Plug-In . SVG Version: 6.00 Build 0)  -->
<svg version="1.1" id="레이어_1" xmlns="http://www.w3.org/2000/svg" xmlns:xlink="http://www.w3.org/1999/xlink" x="0px"
	 y="0px" width="564px" height="152.6px" viewBox="0 0 564 152.6" style="enable-background:new 0 0 564 152.6;"
	 xml:space="preserve">
<style type="text/css">
	.st0{fill:#FFFFFF;}
</style>
<g>
	<path class="st0" d="M447.8,91.1v3.6c0,0,4.1,1.1,4.1,5.7v40.7c0,4.7-4.1,5.7-4.1,5.7v3.6h4.1h84.4V91.1h-84.4H447.8z M465.5,99.3
		h56.9v42.9h-56.9V99.3z"/>
	<path class="st0" d="M129.3,1h-13.8v0h-6.2v4.6c0,0,6.2,1.4,6.2,7.3v95.6l0,0.4c0.2,3.3-0.4,12.8-4.8,17.4
		c-1.8,1.9-4.2,2.9-7.4,2.9v13.8c7,0,13.1-2.5,17.5-7.2c9-9.5,8.7-24.9,8.5-27.5V1z"/>
	<path class="st0" d="M405.8,1H392v0h-6.2v4.6c0,0,6,1.3,6.2,7.2v95.8l0,0.4c0.2,3.3-0.4,12.8-4.8,17.4c-1.8,1.9-4.2,2.9-7.4,2.9
		v13.8c7,0,13.1-2.5,17.5-7.2c9-9.5,8.7-24.9,8.5-27.5V1z"/>
	<path class="st0" d="M104.6,90.2V82v-4.1H101c0,0-1.1,4.1-5.7,4.1H12c-4.7,0-5.7-4.1-5.7-4.1H2.7V82v8.2H24h23.3v9.6l0,0.4
		c0.2,3.3-0.4,12.8-4.8,17.4c-1.8,1.9-4.2,2.9-7.4,2.9v13.8c7,0,13.1-2.5,17.5-7.2c9-9.5,8.7-24.9,8.5-27.5v-9.4H104.6z"/>
	<path class="st0" d="M557.7,32.4c0,0-1,3.8-5.2,4.1h-16.3v-25V0.7h-13.8h-6.2v5.4c0,0,6.2,1.6,6.2,8.7v66.5h13.8V53.9v-9.3h25.1
		v-8.2v0v-4.1H557.7z"/>
	<path class="st0" d="M271.2,68H154.5c-4.7,0-5.7-4.1-5.7-4.1h-3.6V68v8.2h47.9h12.8h0.6c0.8,2.8,0.5,4.9-3.4,10.5l4.8,3.4
		c-0.7,0-1.4,0.1-2,0.2v0c-21.8,2.2-38.6,15.1-38.6,30.6c0,17.1,20.3,31,45.3,31c25,0,45.3-13.9,45.3-31c0-13-11.8-24.1-28.4-28.7
		c-0.1,0-0.3-0.1-0.4-0.1c-3.3-0.9-6.4-1.4-9.4-1.8c-0.9-0.1-1.8-0.2-2.7-0.2c3-5.3,3.8-9.6,3.3-13.9h12.4h47.8V68V64h-3.6
		C276.9,64,275.9,68,271.2,68z M242.2,120.9c0,13.7-13.2,24.8-29.6,24.8c-16.3,0-29.6-11.1-29.6-24.8s13.2-24.8,29.6-24.8
		C229,96.1,242.2,107.2,242.2,120.9z"/>
	<path class="st0" d="M504.8,63.1c0,0-1.1,4.1-5.7,4.1h-53.6v-4.4V50.5V15.9h52.4V7.6V3.6h-3.6c0,0-1.1,4.1-5.7,4.1h-57.2h-4.1v3.6
		c0,0,4.1,1.1,4.1,5.7V66c0,4.7-4.1,5.7-4.1,5.7v3.6h1.8h2.3h6.6h70.5v-4.3v-3.9v-4.1H504.8z"/>
	<g>
		<path class="st0" d="M75,4.5V1.1h-3.1c0,0-0.9,3.5-4.9,3.5H41.6c-4,0-4.9-3.5-4.9-3.5h-3.1v3.5v11.6H75V4.5z"/>
		<path class="st0" d="M62.5,34.2h29h2.8h0v-7.7v-0.8v-3.3h-3.6c0,0-1.1,4.1-5.7,4.1H24.5c-4.7,0-5.7-4.1-5.7-4.1H16h-0.8h0v4.1v0.1
			v7.6h32H48c-0.3,2.2-4.2,23.5-34.6,29.4l3,7.9c22.4-4.8,32.3-17,36.6-26.1c4.8,9.2,15.2,21.1,38.2,26L96,59.2
			C70,54.4,63.8,39.4,62.5,34.2z"/>
	</g>
	<path class="st0" d="M221.4,13.3h38.4V5.1h0V1h-3.6c0,0-1.1,4.1-5.7,4.1h-75.6c-4.7,0-5.7-4.1-5.7-4.1h-3.1h-0.5h0v4.1v0.4v7.7
		h18.6h21.1h1.7c-0.4,2.9-5.1,28.8-43.5,36.5l3,7.9c28.6-6.1,40.6-21.7,45.4-32.5c5.3,11.1,17.8,26.7,47,32.7l4.7-12.3
		C230.1,39.3,222.8,19.4,221.4,13.3z"/>
	<path class="st0" d="M366.5,5.7c0,0-1.1,4.1-5.7,4.1h-10.3h-54.1h-4.1v3.6c0,0,4.1,1.1,4.1,5.7v64.1v1v10.3c0,4.7-4.1,5.7-4.1,5.7
		v3.6h4.1h54.1h19.6V84.1v-3.5V9.7V5.7H366.5z M355.8,84.1v11.4h-5.3h-40V84.1v-2.8V17.9h40h5.3v57.2V84.1z"/>
</g>
</svg>
