<svg width="51" height="48" viewBox="0 0 51 48" fill="none" xmlns="http://www.w3.org/2000/svg">
<g clip-path="url(#clip0_0_189)">
<path d="M38.8449 26.0622L36.5139 22.5436H30.5569L32.8879 26.0622H38.8449Z" fill="#FAAF40"/>
<path d="M28.668 26.0622L26.337 22.5436H20.6011L22.9321 26.0622H28.668Z" fill="#FAAF40"/>
<path d="M31.6308 4.21133C28.4975 5.05151 25.7495 6.7824 24.0944 8.96812C23.608 9.61247 22.7489 9.83988 22.0035 9.52403C19.4766 8.45643 16.2359 8.33009 13.0963 9.17027C7.20878 10.7432 3.1216 15.3863 4.17024 19.3092C4.51769 20.6043 5.33259 21.5455 6.20436 22.2088L44.145 11.9751C44.5429 10.9833 44.7577 9.79566 44.4166 8.53856C43.368 4.61563 37.5057 2.63837 31.6244 4.21133H31.6308Z" fill="#FAAF40"/>
<path d="M44.941 22.5436H40.7338L43.0648 26.0623H44.941C46.0654 26.0623 46.9751 26.9783 46.9751 28.0964V42.2531C46.9751 43.3775 46.0591 44.2872 44.941 44.2872H8.09325C6.9688 44.2872 6.05913 43.3712 6.05913 42.2531V28.0964C6.05913 26.972 6.97512 26.0623 8.09325 26.0623H18.706L16.6972 23.0238L45.9328 15.14C46.8172 14.9126 47.2089 13.7755 47.2089 13.7755C48.1311 11.7414 48.3522 9.60619 47.8216 7.62261C46.255 1.76033 38.5797 -1.29716 30.7148 0.80644C27.2657 1.72874 24.2651 3.49122 22.1299 5.82223C19.1166 4.86835 15.6359 4.84308 12.1867 5.76538C4.33456 7.86898 -0.788623 14.3503 0.784339 20.219C1.24549 21.9435 2.26255 23.4723 3.71548 24.6978C2.9827 25.639 2.5405 26.8203 2.5405 28.1027V42.2594C2.5405 45.3232 5.03576 47.8184 8.09956 47.8184H44.9473C48.0111 47.8184 50.5064 45.3232 50.5064 42.2594V28.1027C50.5064 25.0389 48.0111 22.5436 44.9473 22.5436H44.941ZM13.109 9.16399C16.2423 8.32381 19.4893 8.45647 22.0162 9.51775C22.7553 9.8336 23.6207 9.59987 24.1071 8.96184C25.7622 6.77612 28.5102 5.04523 31.6435 4.20505C37.531 2.63209 43.387 4.60935 44.4356 8.53228C44.7704 9.78938 44.5557 10.977 44.164 11.9688L6.21706 22.2088C5.3453 21.5392 4.53039 20.6043 4.18295 19.3093C3.13431 15.3864 7.22148 10.7433 13.109 9.17031V9.16399Z" fill="#997452"/>
<path d="M12.3572 36.5613V31.1792H14.5556V29.6441H8.4343V31.1792H10.639V36.5613H12.3572Z" fill="#997452"/>
<path d="M22.591 33.0995C22.591 31.0844 21.0117 29.4988 18.9207 29.4988C16.8297 29.4988 15.2631 31.0844 15.2631 33.0995C15.2631 35.1147 16.8361 36.7003 18.9207 36.7003C21.0054 36.7003 22.591 35.1147 22.591 33.0995ZM18.9207 35.1021C17.8026 35.1021 17.0003 34.1861 17.0003 33.0995C17.0003 32.013 17.8026 31.097 18.9207 31.097C20.0388 31.097 20.8411 32.013 20.8411 33.0995C20.8411 34.1861 20.0388 35.1021 18.9207 35.1021Z" fill="#997452"/>
<path d="M42.4078 36.5613V31.1792H44.6061V29.6441H38.4848V31.1792H40.6895V36.5613H42.4078Z" fill="#997452"/>
<path d="M26.0149 33.567L25.1936 31.6024L25.1873 31.6151V31.6087L23.0963 36.5614H24.7577L26.0149 33.567Z" fill="#997452"/>
<path d="M27.6825 29.6378L27.6636 29.6062H26.0275L26.0211 29.6252V29.6378L28.9333 36.5614H30.5947L27.6825 29.6378Z" fill="#997452"/>
<path d="M37.3035 34.4514C37.3035 33.2638 36.4823 32.7521 35.2189 32.4805L34.2524 32.2594C33.7344 32.1457 33.4564 31.9878 33.4564 31.6087C33.4564 31.1602 33.8544 30.9202 34.4419 30.9202C35.0736 30.9202 35.4589 31.2234 35.5284 31.6908H37.2656C37.0382 29.9221 35.421 29.4925 34.3282 29.4925C32.7047 29.4925 31.5802 30.3643 31.5802 31.7477C31.5802 32.8469 32.2246 33.4849 33.5828 33.7818L34.7198 34.0345C35.3073 34.1482 35.4526 34.3883 35.4526 34.622C35.4526 35.001 35.1178 35.2348 34.4798 35.2348C33.7849 35.2348 33.3174 34.9568 33.1216 34.502H31.3591C31.6308 36.0307 32.9574 36.7003 34.4356 36.7003C36.1665 36.7003 37.3035 35.8349 37.3035 34.4514Z" fill="#997452"/>
<path d="M19.0218 41.2992C18.7754 41.2992 18.6049 41.1981 18.5354 41.0338H17.9037C17.9984 41.5834 18.4785 41.8235 19.0092 41.8235C19.6282 41.8235 20.0388 41.5139 20.0388 41.0149C20.0388 40.5853 19.7419 40.4084 19.2934 40.3074L18.946 40.2252C18.7628 40.1873 18.6617 40.1242 18.6617 39.9915C18.6617 39.8336 18.807 39.7451 19.0155 39.7451C19.2429 39.7451 19.3819 39.8525 19.4071 40.0231H20.0325C19.9504 39.3914 19.3692 39.2335 18.9776 39.2335C18.3964 39.2335 17.9921 39.5493 17.9921 40.042C17.9921 40.4337 18.2195 40.6674 18.7122 40.7748L19.1229 40.8633C19.3313 40.9012 19.3882 40.9896 19.3882 41.0781C19.3882 41.2107 19.2682 41.2992 19.0407 41.2992H19.0218Z" fill="#997452"/>
<path d="M22.3509 41.773V39.8399H23.1406V39.2903H20.9422V39.8399H21.7318V41.773H22.3509Z" fill="#997452"/>
<path d="M25.301 41.8235C26.0149 41.8235 26.4571 41.3813 26.4571 40.6106V39.284H25.838V40.6169C25.838 40.9959 25.6232 41.2423 25.301 41.2423C24.9788 41.2423 24.7704 40.9959 24.7704 40.6169V39.284H24.1513V40.6106C24.1513 41.3813 24.5998 41.8235 25.3073 41.8235H25.301Z" fill="#997452"/>
<path d="M27.5941 39.2903V41.773H28.5922C29.3692 41.773 29.9315 41.2613 29.9315 40.5222C29.9315 39.7831 29.3692 39.2903 28.5922 39.2903H27.5941ZM29.3061 40.5222C29.3061 40.9138 28.9965 41.2171 28.5922 41.2171H28.2069V39.8462H28.5922C28.9965 39.8462 29.3061 40.1432 29.3061 40.5222Z" fill="#997452"/>
<path d="M31.4918 39.2903H30.8727V41.773H31.4918V39.2903Z" fill="#997452"/>
<path d="M32.5025 40.5285C32.5025 41.2486 33.0711 41.8235 33.8165 41.8235C34.5619 41.8235 35.1368 41.2549 35.1368 40.5285C35.1368 39.802 34.5682 39.2335 33.8165 39.2335C33.0648 39.2335 32.5025 39.802 32.5025 40.5285ZM34.5051 40.5285C34.5051 40.9201 34.2145 41.2486 33.8165 41.2486C33.4185 41.2486 33.1279 40.9201 33.1279 40.5285C33.1279 40.1368 33.4185 39.8083 33.8165 39.8083C34.2145 39.8083 34.5051 40.1368 34.5051 40.5285Z" fill="#997452"/>
</g>
<defs>
<clipPath id="clip0_0_189">
<rect width="50" height="47.669" fill="white" transform="translate(0.5 0.143127)"/>
</clipPath>
</defs>
</svg>
