<svg width="51" height="48" viewBox="0 0 51 48" fill="none" xmlns="http://www.w3.org/2000/svg">
<g clip-path="url(#clip0_35_75)">
<mask id="mask0_35_75" style="mask-type:luminance" maskUnits="userSpaceOnUse" x="0" y="0" width="51" height="48">
<path d="M50.5 0.143127H0.5V47.8121H50.5V0.143127Z" fill="white"/>
</mask>
<g mask="url(#mask0_35_75)">
<path d="M38.8451 26.0622L36.5141 22.5436H30.5571L32.8881 26.0622H38.8451Z" fill="white"/>
<path d="M28.668 26.0622L26.337 22.5436H20.6011L22.9321 26.0622H28.668Z" fill="white"/>
<path d="M44.9411 22.5436H40.7339L43.0649 26.0623H44.9411C46.0655 26.0623 46.9752 26.9783 46.9752 28.0964V42.2531C46.9752 43.3775 46.0592 44.2872 44.9411 44.2872H8.09331C6.96886 44.2872 6.05919 43.3712 6.05919 42.2531V28.0964C6.05919 26.972 6.97518 26.0623 8.09331 26.0623H18.7061L16.6973 23.0238L45.9329 15.14C46.8173 14.9126 47.209 13.7755 47.209 13.7755C48.1312 11.7414 48.3523 9.60619 47.8217 7.62261C46.2551 1.76033 38.5798 -1.29716 30.7149 0.80644C27.2658 1.72874 24.2652 3.49122 22.13 5.82223C19.1167 4.86835 15.636 4.84308 12.1868 5.76538C4.33462 7.86898 -0.788562 14.3503 0.7844 20.219C1.24555 21.9435 2.26261 23.4723 3.71554 24.6978C2.98276 25.639 2.54056 26.8203 2.54056 28.1027V42.2594C2.54056 45.3232 5.03582 47.8184 8.09962 47.8184H44.9474C48.0112 47.8184 50.5065 45.3232 50.5065 42.2594V28.1027C50.5065 25.0389 48.0112 22.5436 44.9474 22.5436H44.9411ZM13.1091 9.16399C16.2424 8.32381 19.4894 8.45647 22.0163 9.51775C22.7554 9.8336 23.6208 9.59987 24.1072 8.96184C25.7623 6.77612 28.5103 5.04523 31.6436 4.20505C37.5311 2.63209 43.3871 4.60935 44.4357 8.53228C44.7705 9.78938 44.5558 10.977 44.1641 11.9688L6.21712 22.2088C5.34536 21.5392 4.53045 20.6043 4.18301 19.3093C3.13437 15.3864 7.22154 10.7433 13.1091 9.17031V9.16399Z" fill="white"/>
<path d="M12.3575 36.5613V31.1792H14.5559V29.6441H8.43457V31.1792H10.6393V36.5613H12.3575Z" fill="white"/>
<path d="M22.5911 33.0995C22.5911 31.0844 21.0118 29.4988 18.9208 29.4988C16.8298 29.4988 15.2632 31.0844 15.2632 33.0995C15.2632 35.1147 16.8362 36.7003 18.9208 36.7003C21.0055 36.7003 22.5911 35.1147 22.5911 33.0995ZM18.9208 35.1021C17.8027 35.1021 17.0004 34.1861 17.0004 33.0995C17.0004 32.013 17.8027 31.097 18.9208 31.097C20.0389 31.097 20.8412 32.013 20.8412 33.0995C20.8412 34.1861 20.0389 35.1021 18.9208 35.1021Z" fill="white"/>
<path d="M42.4079 36.5613V31.1792H44.6062V29.6441H38.4849V31.1792H40.6896V36.5613H42.4079Z" fill="white"/>
<path d="M26.0148 33.567L25.1935 31.6024L25.1872 31.6151V31.6087L23.0962 36.5614H24.7576L26.0148 33.567Z" fill="white"/>
<path d="M27.6824 29.6378L27.6635 29.6062H26.0274L26.021 29.6252V29.6378L28.9332 36.5614H30.5946L27.6824 29.6378Z" fill="white"/>
<path d="M37.3038 34.4514C37.3038 33.2638 36.4826 32.7521 35.2192 32.4805L34.2527 32.2594C33.7347 32.1457 33.4567 31.9878 33.4567 31.6087C33.4567 31.1602 33.8547 30.9202 34.4422 30.9202C35.0739 30.9202 35.4592 31.2234 35.5287 31.6908H37.2659C37.0385 29.9221 35.4213 29.4925 34.3285 29.4925C32.705 29.4925 31.5805 30.3643 31.5805 31.7477C31.5805 32.8469 32.2249 33.4849 33.5831 33.7818L34.7201 34.0345C35.3076 34.1482 35.4529 34.3883 35.4529 34.622C35.4529 35.001 35.1181 35.2348 34.4801 35.2348C33.7852 35.2348 33.3177 34.9568 33.1219 34.502H31.3594C31.6311 36.0307 32.9577 36.7003 34.4359 36.7003C36.1668 36.7003 37.3038 35.8349 37.3038 34.4514Z" fill="white"/>
<path d="M19.0219 41.2992C18.7755 41.2992 18.605 41.1981 18.5355 41.0338H17.9038C17.9985 41.5834 18.4786 41.8235 19.0093 41.8235C19.6283 41.8235 20.0389 41.5139 20.0389 41.0149C20.0389 40.5853 19.742 40.4084 19.2935 40.3074L18.9461 40.2252C18.7629 40.1873 18.6618 40.1242 18.6618 39.9915C18.6618 39.8336 18.8071 39.7451 19.0156 39.7451C19.243 39.7451 19.382 39.8525 19.4072 40.0231H20.0326C19.9505 39.3914 19.3693 39.2335 18.9777 39.2335C18.3965 39.2335 17.9922 39.5493 17.9922 40.042C17.9922 40.4337 18.2196 40.6674 18.7123 40.7748L19.123 40.8633C19.3314 40.9012 19.3883 40.9896 19.3883 41.0781C19.3883 41.2107 19.2683 41.2992 19.0408 41.2992H19.0219Z" fill="white"/>
<path d="M22.3511 41.773V39.8399H23.1408V39.2903H20.9424V39.8399H21.732V41.773H22.3511Z" fill="white"/>
<path d="M25.3011 41.8235C26.015 41.8235 26.4572 41.3813 26.4572 40.6106V39.284H25.8381V40.6169C25.8381 40.9959 25.6233 41.2423 25.3011 41.2423C24.9789 41.2423 24.7705 40.9959 24.7705 40.6169V39.284H24.1514V40.6106C24.1514 41.3813 24.5999 41.8235 25.3074 41.8235H25.3011Z" fill="white"/>
<path d="M27.5942 39.2903V41.773H28.5923C29.3693 41.773 29.9316 41.2613 29.9316 40.5222C29.9316 39.7831 29.3693 39.2903 28.5923 39.2903H27.5942ZM29.3062 40.5222C29.3062 40.9138 28.9966 41.2171 28.5923 41.2171H28.207V39.8462H28.5923C28.9966 39.8462 29.3062 40.1432 29.3062 40.5222Z" fill="white"/>
<path d="M31.4917 39.2903H30.8726V41.773H31.4917V39.2903Z" fill="white"/>
<path d="M32.5024 40.5285C32.5024 41.2486 33.071 41.8235 33.8164 41.8235C34.5618 41.8235 35.1367 41.2549 35.1367 40.5285C35.1367 39.802 34.5681 39.2335 33.8164 39.2335C33.0647 39.2335 32.5024 39.802 32.5024 40.5285ZM34.505 40.5285C34.505 40.9201 34.2144 41.2486 33.8164 41.2486C33.4184 41.2486 33.1278 40.9201 33.1278 40.5285C33.1278 40.1368 33.4184 39.8083 33.8164 39.8083C34.2144 39.8083 34.505 40.1368 34.505 40.5285Z" fill="white"/>
</g>
</g>
<defs>
<clipPath id="clip0_35_75">
<rect width="51" height="48" fill="white"/>
</clipPath>
</defs>
</svg>
