<?xml version="1.0" encoding="utf-8"?>
<!-- Generator: Adobe Illustrator 16.0.0, SVG Export Plug-In . SVG Version: 6.00 Build 0)  -->
<!DOCTYPE svg PUBLIC "-//W3C//DTD SVG 1.1//EN" "http://www.w3.org/Graphics/SVG/1.1/DTD/svg11.dtd">
<svg version="1.1" id="레이어_1" xmlns="http://www.w3.org/2000/svg" xmlns:xlink="http://www.w3.org/1999/xlink" x="0px"
	 y="0px" width="160px" height="160px" viewBox="0 0 160 160" style="enable-background:new 0 0 160 160;" xml:space="preserve">
<style type="text/css">
<![CDATA[
	.st0{fill:#FAAF40;}
	.st1{fill:#997452;}
	.st2{fill:#FFFFFF;}
]]>
</style>
<polygon class="st0" points="102.133,83.955 98.447,78.383 89.019,78.383 92.706,83.955 "/>
<polygon class="st0" points="86.025,83.955 82.339,78.383 73.256,78.383 76.943,83.955 "/>
<path class="st0" d="M90.719,49.358c-4.961,1.328-9.309,4.073-11.928,7.53c-0.768,1.016-2.131,1.381-3.305,0.884
	c-3.996-1.686-9.133-1.893-14.095-0.565c-9.317,2.494-15.786,9.844-14.125,16.051c0.55,2.055,1.843,3.537,3.219,4.593l60.056-16.202
	c0.626-1.572,0.966-3.449,0.433-5.441C109.312,50.001,100.036,46.864,90.719,49.358"/>
<path class="st1" d="M111.787,78.382h-6.661l3.688,5.572h2.974c1.778,0,3.226,1.446,3.226,3.225v22.408
	c0,1.777-1.447,3.223-3.226,3.223H53.458c-1.779,0-3.225-1.445-3.225-3.223V87.179c0-1.778,1.446-3.225,3.225-3.225h16.804
	l-3.182-4.808l46.277-12.485c1.399-0.362,2.023-2.158,2.023-2.158c1.464-3.217,1.814-6.597,0.975-9.736
	c-2.484-9.283-14.631-14.123-27.078-10.792c-5.459,1.461-10.207,4.249-13.588,7.943c-4.773-1.512-10.28-1.555-15.74-0.094
	C47.503,55.155,39.398,65.417,41.882,74.7c0.73,2.727,2.344,5.151,4.639,7.089c-1.161,1.491-1.86,3.358-1.86,5.39v22.408
	c0,4.849,3.946,8.795,8.797,8.795h58.329c4.851,0,8.797-3.946,8.797-8.795V87.179C120.584,82.328,116.638,78.382,111.787,78.382
	 M61.391,57.208c4.962-1.328,10.1-1.121,14.095,0.565c1.174,0.497,2.537,0.132,3.305-0.885c2.62-3.456,6.967-6.201,11.928-7.529
	c9.317-2.494,18.593,0.643,20.254,6.85c0.533,1.992,0.193,3.868-0.433,5.441L50.484,77.851c-1.376-1.055-2.669-2.537-3.219-4.592
	C45.604,67.051,52.073,59.702,61.391,57.208"/>
<polygon class="st1" points="60.203,100.569 60.203,92.055 63.681,92.055 63.681,89.624 53.991,89.624 53.991,92.055 57.484,92.055 
	57.484,100.569 "/>
<path class="st1" d="M76.406,95.097c0-3.188-2.496-5.698-5.812-5.698c-3.3,0-5.793,2.511-5.793,5.698s2.493,5.697,5.793,5.697
	C73.91,100.794,76.406,98.284,76.406,95.097 M70.594,98.268c-1.77,0-3.041-1.449-3.041-3.171c0-1.723,1.271-3.17,3.041-3.17
	c1.772,0,3.043,1.447,3.043,3.17C73.637,96.818,72.366,98.268,70.594,98.268"/>
<polygon class="st1" points="107.776,100.569 107.776,92.055 111.254,92.055 111.254,89.624 101.564,89.624 101.564,92.055 
	105.058,92.055 105.058,100.569 "/>
<polygon class="st1" points="81.828,95.83 80.521,92.724 80.515,92.739 80.511,92.729 77.206,100.568 79.83,100.568 "/>
<polygon class="st1" points="84.46,89.611 84.439,89.561 81.846,89.561 81.83,89.598 81.836,89.611 86.449,100.569 89.073,100.569 
	"/>
<path class="st1" d="M99.691,97.237c0-1.883-1.304-2.688-3.3-3.123l-1.529-0.354c-0.82-0.177-1.256-0.434-1.256-1.029
	c0-0.708,0.628-1.095,1.561-1.095c1.003,0,1.609,0.479,1.725,1.223h2.75c-0.36-2.797-2.917-3.476-4.651-3.476
	c-2.573,0-4.346,1.384-4.346,3.573c0,1.738,1.016,2.752,3.171,3.219l1.804,0.402c0.933,0.177,1.158,0.564,1.158,0.934
	c0,0.596-0.53,0.966-1.544,0.966c-1.098,0-1.839-0.438-2.151-1.158h-2.795c0.431,2.416,2.529,3.476,4.865,3.476
	C97.889,100.794,99.691,99.426,99.691,97.237"/>
<path class="st1" d="M70.758,108.07c-0.394,0-0.66-0.156-0.773-0.416h-1.002c0.154,0.867,0.907,1.248,1.746,1.248
	c0.982,0,1.629-0.491,1.629-1.276c0-0.677-0.468-0.966-1.184-1.121l-0.549-0.127c-0.295-0.064-0.451-0.156-0.451-0.37
	c0-0.254,0.225-0.393,0.56-0.393c0.36,0,0.578,0.171,0.619,0.438h0.987c-0.129-1.004-1.046-1.247-1.669-1.247
	c-0.924,0-1.56,0.496-1.56,1.282c0,0.624,0.364,0.987,1.138,1.155l0.647,0.145c0.335,0.063,0.416,0.203,0.416,0.335
	C71.313,107.938,71.123,108.07,70.758,108.07"/>
<polygon class="st1" points="76.022,108.818 76.022,105.763 77.271,105.763 77.271,104.89 73.792,104.89 73.792,105.763 
	75.046,105.763 75.046,108.818 "/>
<path class="st1" d="M80.698,108.905c1.127,0,1.832-0.699,1.832-1.918v-2.097h-0.981v2.114c0,0.601-0.336,0.987-0.851,0.987
	c-0.514,0-0.844-0.387-0.844-0.987v-2.114h-0.982v2.097C78.873,108.206,79.579,108.905,80.698,108.905"/>
<path class="st1" d="M84.323,104.89v3.929h1.584c1.23,0,2.12-0.809,2.12-1.976c0-1.15-0.89-1.953-2.12-1.953H84.323z
	 M87.034,106.843c0,0.624-0.491,1.098-1.127,1.098H85.3v-2.172h0.607C86.543,105.769,87.034,106.236,87.034,106.843"/>
<rect x="89.514" y="104.89" class="st1" width="0.977" height="3.93"/>
<path class="st1" d="M92.097,106.854c0,1.144,0.895,2.045,2.08,2.045c1.189,0,2.086-0.901,2.086-2.045
	c0-1.145-0.896-2.045-2.086-2.045C92.991,104.81,92.097,105.71,92.097,106.854 M95.269,106.854c0,0.618-0.456,1.138-1.092,1.138
	c-0.637,0-1.093-0.52-1.093-1.138s0.456-1.139,1.093-1.139C94.813,105.716,95.269,106.236,95.269,106.854"/>
<polygon class="st2" points="253.8,83.955 250.114,78.383 240.686,78.383 244.373,83.955 "/>
<polygon class="st2" points="237.692,83.955 234.006,78.383 224.923,78.383 228.609,83.955 "/>
<path class="st2" d="M263.454,78.382h-6.661l3.688,5.572h2.974c1.778,0,3.226,1.446,3.226,3.225v22.408
	c0,1.777-1.447,3.223-3.226,3.223h-58.329c-1.779,0-3.225-1.445-3.225-3.223V87.179c0-1.778,1.445-3.225,3.225-3.225h16.805
	l-3.182-4.808l46.276-12.485c1.399-0.362,2.023-2.158,2.023-2.158c1.464-3.217,1.814-6.597,0.975-9.736
	c-2.484-9.283-14.631-14.123-27.078-10.792c-5.459,1.461-10.207,4.249-13.588,7.943c-4.772-1.512-10.28-1.555-15.74-0.094
	c-12.446,3.331-20.551,13.592-18.067,22.875c0.73,2.727,2.345,5.151,4.64,7.089c-1.161,1.491-1.86,3.358-1.86,5.39v22.408
	c0,4.849,3.946,8.795,8.797,8.795h58.329c4.851,0,8.797-3.946,8.797-8.795V87.179C272.251,82.328,268.305,78.382,263.454,78.382
	 M213.058,57.208c4.962-1.328,10.1-1.121,14.095,0.565c1.174,0.497,2.537,0.132,3.305-0.885c2.62-3.456,6.968-6.201,11.929-7.529
	c9.317-2.494,18.593,0.643,20.254,6.85c0.533,1.992,0.193,3.868-0.433,5.441l-60.056,16.201c-1.376-1.055-2.669-2.537-3.219-4.592
	C197.271,67.051,203.74,59.702,213.058,57.208"/>
<polygon class="st2" points="211.87,100.569 211.87,92.055 215.348,92.055 215.348,89.624 205.658,89.624 205.658,92.055 
	209.15,92.055 209.15,100.569 "/>
<path class="st2" d="M228.072,95.097c0-3.188-2.495-5.698-5.811-5.698c-3.301,0-5.794,2.511-5.794,5.698s2.493,5.697,5.794,5.697
	C225.577,100.794,228.072,98.284,228.072,95.097 M222.262,98.268c-1.771,0-3.041-1.449-3.041-3.171c0-1.723,1.271-3.17,3.041-3.17
	c1.771,0,3.043,1.447,3.043,3.17C225.305,96.818,224.033,98.268,222.262,98.268"/>
<polygon class="st2" points="259.443,100.569 259.443,92.055 262.921,92.055 262.921,89.624 253.231,89.624 253.231,92.055 
	256.725,92.055 256.725,100.569 "/>
<polygon class="st2" points="233.495,95.83 232.188,92.724 232.182,92.739 232.178,92.729 228.873,100.568 231.497,100.568 "/>
<polygon class="st2" points="236.127,89.611 236.106,89.561 233.513,89.561 233.497,89.598 233.503,89.611 238.116,100.569 
	240.74,100.569 "/>
<path class="st2" d="M251.358,97.237c0-1.883-1.304-2.688-3.3-3.123l-1.529-0.354c-0.82-0.177-1.256-0.434-1.256-1.029
	c0-0.708,0.628-1.095,1.561-1.095c1.003,0,1.609,0.479,1.725,1.223h2.75c-0.36-2.797-2.917-3.476-4.651-3.476
	c-2.573,0-4.346,1.384-4.346,3.573c0,1.738,1.016,2.752,3.171,3.219l1.804,0.402c0.933,0.177,1.158,0.564,1.158,0.934
	c0,0.596-0.53,0.966-1.544,0.966c-1.098,0-1.839-0.438-2.151-1.158h-2.795c0.431,2.416,2.529,3.476,4.865,3.476
	C249.556,100.794,251.358,99.426,251.358,97.237"/>
<path class="st2" d="M222.426,108.07c-0.395,0-0.66-0.156-0.773-0.416h-1.002c0.154,0.867,0.907,1.248,1.746,1.248
	c0.982,0,1.629-0.491,1.629-1.276c0-0.677-0.468-0.966-1.184-1.121l-0.549-0.127c-0.295-0.064-0.451-0.156-0.451-0.37
	c0-0.254,0.225-0.393,0.56-0.393c0.36,0,0.578,0.171,0.619,0.438h0.987c-0.129-1.004-1.047-1.247-1.67-1.247
	c-0.924,0-1.56,0.496-1.56,1.282c0,0.624,0.364,0.987,1.138,1.155l0.647,0.145c0.335,0.063,0.416,0.203,0.416,0.335
	C222.979,107.938,222.789,108.07,222.426,108.07"/>
<polygon class="st2" points="227.689,108.818 227.689,105.763 228.938,105.763 228.938,104.89 225.459,104.89 225.459,105.763 
	226.713,105.763 226.713,108.818 "/>
<path class="st2" d="M232.365,108.905c1.127,0,1.832-0.699,1.832-1.918v-2.097h-0.981v2.114c0,0.601-0.336,0.987-0.851,0.987
	c-0.514,0-0.844-0.387-0.844-0.987v-2.114h-0.982v2.097C230.539,108.206,231.246,108.905,232.365,108.905"/>
<path class="st2" d="M235.99,104.89v3.929h1.584c1.23,0,2.12-0.809,2.12-1.976c0-1.15-0.89-1.953-2.12-1.953H235.99z
	 M238.701,106.843c0,0.624-0.491,1.098-1.127,1.098h-0.607v-2.172h0.607C238.21,105.769,238.701,106.236,238.701,106.843"/>
<rect x="241.181" y="104.89" class="st2" width="0.977" height="3.93"/>
<path class="st2" d="M243.764,106.854c0,1.144,0.895,2.045,2.08,2.045c1.189,0,2.086-0.901,2.086-2.045
	c0-1.145-0.896-2.045-2.086-2.045C244.658,104.81,243.764,105.71,243.764,106.854 M246.936,106.854c0,0.618-0.456,1.138-1.092,1.138
	c-0.637,0-1.093-0.52-1.093-1.138s0.456-1.139,1.093-1.139C246.479,105.716,246.936,106.236,246.936,106.854"/>
</svg>
